<?xml version="1.0" encoding="UTF-8" standalone="no"?><!DOCTYPE svg PUBLIC "-//W3C//DTD SVG 1.1//EN" "http://www.w3.org/Graphics/SVG/1.1/DTD/svg11.dtd"><!-- Generated by graphviz version 2.40.1 (20161225.0304)
 --><!-- Title: %0 Pages: 1 --><svg xmlns="http://www.w3.org/2000/svg" xmlns:xlink="http://www.w3.org/1999/xlink" width="1261pt" height="499pt" viewBox="0.00 0.00 1261.29 498.83">
<g id="graph0" class="graph" transform="scale(1 1) rotate(0) translate(4 494.8313)">
<title>%0</title>
<polygon fill="#ffffff" stroke="transparent" points="-4,4 -4,-494.8313 1257.2917,-494.8313 1257.2917,4 -4,4"/>
<!-- [root] aws_db_instance.default (expand) -->
<g id="node1" class="node">
<title>[root] aws_db_instance.default (expand)</title>
<polygon fill="none" stroke="#000000" points="273.7515,-346.8313 119.7387,-346.8313 119.7387,-310.8313 273.7515,-310.8313 273.7515,-346.8313"/>
<text text-anchor="middle" x="196.7451" y="-324.6313" font-family="Times,serif" font-size="14.00" fill="#000000">aws_db_instance.default</text>
</g>
<!-- [root] provider[&quot;registry.terraform.io/hashicorp/aws&quot;] -->
<g id="node11" class="node">
<title>[root] provider["registry.terraform.io/hashicorp/aws"]</title>
<polygon fill="none" stroke="#000000" points="274.7451,-119.4156 -.2453,-101.4156 274.7451,-83.4156 549.7356,-101.4156 274.7451,-119.4156"/>
<text text-anchor="middle" x="274.7451" y="-97.2156" font-family="Times,serif" font-size="14.00" fill="#000000">provider["registry.terraform.io/hashicorp/aws"]</text>
</g>
<!-- [root] aws_db_instance.default (expand)&#45;&gt;[root] provider[&quot;registry.terraform.io/hashicorp/aws&quot;] -->
<g id="edge1" class="edge">
<title>[root] aws_db_instance.default (expand)-&gt;[root] provider["registry.terraform.io/hashicorp/aws"]</title>
<path fill="none" stroke="#000000" d="M191.1917,-310.7002C182.7131,-279.5158 169.8006,-214.4865 192.7451,-166.8313 201.5439,-148.5565 218.2073,-133.8013 234.2268,-122.9622"/>
<polygon fill="#000000" stroke="#000000" points="236.4686,-125.6831 243.0063,-117.3459 232.6964,-119.7864 236.4686,-125.6831"/>
</g>
<!-- [root] aws_instance.my_instance (expand) -->
<g id="node2" class="node">
<title>[root] aws_instance.my_instance (expand)</title>
<polygon fill="none" stroke="#000000" points="467.1407,-346.8313 302.3495,-346.8313 302.3495,-310.8313 467.1407,-310.8313 467.1407,-346.8313"/>
<text text-anchor="middle" x="384.7451" y="-324.6313" font-family="Times,serif" font-size="14.00" fill="#000000">aws_instance.my_instance</text>
</g>
<!-- [root] aws_key_pair.deployer (expand) -->
<g id="node4" class="node">
<title>[root] aws_key_pair.deployer (expand)</title>
<polygon fill="none" stroke="#000000" points="347.9719,-202.8313 201.5183,-202.8313 201.5183,-166.8313 347.9719,-166.8313 347.9719,-202.8313"/>
<text text-anchor="middle" x="274.7451" y="-180.6313" font-family="Times,serif" font-size="14.00" fill="#000000">aws_key_pair.deployer</text>
</g>
<!-- [root] aws_instance.my_instance (expand)&#45;&gt;[root] aws_key_pair.deployer (expand) -->
<g id="edge2" class="edge">
<title>[root] aws_instance.my_instance (expand)-&gt;[root] aws_key_pair.deployer (expand)</title>
<path fill="none" stroke="#000000" d="M366.8355,-310.4088C357.2467,-300.2267 345.4472,-287.1716 335.7451,-274.8313 319.677,-254.3937 303.2417,-229.8965 291.4854,-211.6236"/>
<polygon fill="#000000" stroke="#000000" points="294.2791,-209.4948 285.9517,-202.9446 288.3767,-213.2582 294.2791,-209.4948"/>
</g>
<!-- [root] aws_security_group.my_sg (expand) -->
<g id="node7" class="node">
<title>[root] aws_security_group.my_sg (expand)</title>
<polygon fill="none" stroke="#000000" points="1036.3228,-274.8313 867.1674,-274.8313 867.1674,-238.8313 1036.3228,-238.8313 1036.3228,-274.8313"/>
<text text-anchor="middle" x="951.7451" y="-252.6313" font-family="Times,serif" font-size="14.00" fill="#000000">aws_security_group.my_sg</text>
</g>
<!-- [root] aws_instance.my_instance (expand)&#45;&gt;[root] aws_security_group.my_sg (expand) -->
<g id="edge3" class="edge">
<title>[root] aws_instance.my_instance (expand)-&gt;[root] aws_security_group.my_sg (expand)</title>
<path fill="none" stroke="#000000" d="M467.5105,-312.0906C470.2852,-311.6474 473.0359,-311.2259 475.7451,-310.8313 641.2814,-286.7227 687.1843,-298.4266 856.9745,-274.856"/>
<polygon fill="#000000" stroke="#000000" points="857.5907,-278.3038 867.0046,-273.4429 856.6141,-271.3723 857.5907,-278.3038"/>
</g>
<!-- [root] aws_subnet.my_subnet (expand) -->
<g id="node8" class="node">
<title>[root] aws_subnet.my_subnet (expand)</title>
<polygon fill="none" stroke="#000000" points="849.0013,-274.8313 702.4889,-274.8313 702.4889,-238.8313 849.0013,-238.8313 849.0013,-274.8313"/>
<text text-anchor="middle" x="775.7451" y="-252.6313" font-family="Times,serif" font-size="14.00" fill="#000000">aws_subnet.my_subnet</text>
</g>
<!-- [root] aws_instance.my_instance (expand)&#45;&gt;[root] aws_subnet.my_subnet (expand) -->
<g id="edge4" class="edge">
<title>[root] aws_instance.my_instance (expand)-&gt;[root] aws_subnet.my_subnet (expand)</title>
<path fill="none" stroke="#000000" d="M467.5507,-312.3368C470.3139,-311.8232 473.0513,-311.32 475.7451,-310.8313 569.2551,-293.8664 595.627,-293.3793 692.545,-275.0118"/>
<polygon fill="#000000" stroke="#000000" points="693.3013,-278.4307 702.4668,-273.1162 691.9876,-271.5551 693.3013,-278.4307"/>
</g>
<!-- [root] data.aws_ami.ubuntu (expand) -->
<g id="node10" class="node">
<title>[root] data.aws_ami.ubuntu (expand)</title>
<polygon fill="none" stroke="#000000" points="501.2171,-202.8313 366.2731,-202.8313 366.2731,-166.8313 501.2171,-166.8313 501.2171,-202.8313"/>
<text text-anchor="middle" x="433.7451" y="-180.6313" font-family="Times,serif" font-size="14.00" fill="#000000">data.aws_ami.ubuntu</text>
</g>
<!-- [root] aws_instance.my_instance (expand)&#45;&gt;[root] data.aws_ami.ubuntu (expand) -->
<g id="edge5" class="edge">
<title>[root] aws_instance.my_instance (expand)-&gt;[root] data.aws_ami.ubuntu (expand)</title>
<path fill="none" stroke="#000000" d="M366.3704,-310.7861C349.853,-292.282 330.1251,-262.8868 343.7451,-238.8313 351.0396,-225.9478 362.7697,-215.8028 375.385,-207.9558"/>
<polygon fill="#000000" stroke="#000000" points="377.2871,-210.8996 384.2164,-202.8849 373.8015,-204.8291 377.2871,-210.8996"/>
</g>
<!-- [root] var.instance_type -->
<g id="node13" class="node">
<title>[root] var.instance_type</title>
<polygon fill="none" stroke="#000000" points="461.0957,-274.8313 352.3946,-274.8313 352.3946,-238.8313 467.0957,-238.8313 467.0957,-268.8313 461.0957,-274.8313"/>
<polyline fill="none" stroke="#000000" points="461.0957,-274.8313 461.0957,-268.8313 "/>
<polyline fill="none" stroke="#000000" points="467.0957,-268.8313 461.0957,-268.8313 "/>
<text text-anchor="middle" x="409.7451" y="-252.6313" font-family="Times,serif" font-size="14.00" fill="#000000">var.instance_type</text>
</g>
<!-- [root] aws_instance.my_instance (expand)&#45;&gt;[root] var.instance_type -->
<g id="edge6" class="edge">
<title>[root] aws_instance.my_instance (expand)-&gt;[root] var.instance_type</title>
<path fill="none" stroke="#000000" d="M391.0537,-310.6626C393.7568,-302.8776 396.9767,-293.6042 399.9761,-284.966"/>
<polygon fill="#000000" stroke="#000000" points="403.3778,-285.8394 403.3516,-275.2446 396.7651,-283.5432 403.3778,-285.8394"/>
</g>
<!-- [root] aws_internet_gateway.my_igw (expand) -->
<g id="node3" class="node">
<title>[root] aws_internet_gateway.my_igw (expand)</title>
<polygon fill="none" stroke="#000000" points="709.8018,-202.8313 519.6884,-202.8313 519.6884,-166.8313 709.8018,-166.8313 709.8018,-202.8313"/>
<text text-anchor="middle" x="614.7451" y="-180.6313" font-family="Times,serif" font-size="14.00" fill="#000000">aws_internet_gateway.my_igw</text>
</g>
<!-- [root] aws_vpc.my_vpc 
(expand) -->
<g id="node16" class="node">
<title>[root] aws_vpc.my_vpc 
(expand)</title>
<ellipse fill="none" stroke="#000000" cx="677.7451" cy="-101.4156" rx="110.0584" ry="29.3315"/>
<text text-anchor="middle" x="677.7451" y="-105.6156" font-family="Times,serif" font-size="14.00" fill="#000000">[root] aws_vpc.my_vpc </text>
<text text-anchor="middle" x="677.7451" y="-88.8156" font-family="Times,serif" font-size="14.00" fill="#000000">(expand)</text>
</g>
<!-- [root] aws_internet_gateway.my_igw (expand)&#45;&gt;[root] aws_vpc.my_vpc 
(expand) -->
<g id="edge7" class="edge">
<title>[root] aws_internet_gateway.my_igw (expand)-&gt;[root] aws_vpc.my_vpc 
(expand)</title>
<path fill="none" stroke="#000000" d="M628.4152,-166.7313C634.6917,-158.4208 642.3765,-148.2457 649.7952,-138.4229"/>
<polygon fill="#000000" stroke="#000000" points="652.6937,-140.3925 655.9276,-130.3033 647.1078,-136.1738 652.6937,-140.3925"/>
</g>
<!-- [root] aws_key_pair.deployer (expand)&#45;&gt;[root] provider[&quot;registry.terraform.io/hashicorp/aws&quot;] -->
<g id="edge8" class="edge">
<title>[root] aws_key_pair.deployer (expand)-&gt;[root] provider["registry.terraform.io/hashicorp/aws"]</title>
<path fill="none" stroke="#000000" d="M274.7451,-166.7313C274.7451,-155.9097 274.7451,-141.9265 274.7451,-129.6763"/>
<polygon fill="#000000" stroke="#000000" points="278.2452,-129.4802 274.7451,-119.4803 271.2452,-129.4803 278.2452,-129.4802"/>
</g>
<!-- [root] aws_route_table.my_route_table (expand) -->
<g id="node5" class="node">
<title>[root] aws_route_table.my_route_table (expand)</title>
<polygon fill="none" stroke="#000000" points="684.3539,-274.8313 485.1363,-274.8313 485.1363,-238.8313 684.3539,-238.8313 684.3539,-274.8313"/>
<text text-anchor="middle" x="584.7451" y="-252.6313" font-family="Times,serif" font-size="14.00" fill="#000000">aws_route_table.my_route_table</text>
</g>
<!-- [root] aws_route_table.my_route_table (expand)&#45;&gt;[root] aws_internet_gateway.my_igw (expand) -->
<g id="edge9" class="edge">
<title>[root] aws_route_table.my_route_table (expand)-&gt;[root] aws_internet_gateway.my_igw (expand)</title>
<path fill="none" stroke="#000000" d="M592.3154,-238.6626C595.5944,-230.793 599.5071,-221.4024 603.1396,-212.6846"/>
<polygon fill="#000000" stroke="#000000" points="606.4575,-213.8215 607.0729,-203.2446 599.9959,-211.1292 606.4575,-213.8215"/>
</g>
<!-- [root] aws_route_table_association.my_rta (expand) -->
<g id="node6" class="node">
<title>[root] aws_route_table_association.my_rta (expand)</title>
<polygon fill="none" stroke="#000000" points="704.8483,-346.8313 484.6419,-346.8313 484.6419,-310.8313 704.8483,-310.8313 704.8483,-346.8313"/>
<text text-anchor="middle" x="594.7451" y="-324.6313" font-family="Times,serif" font-size="14.00" fill="#000000">aws_route_table_association.my_rta</text>
</g>
<!-- [root] aws_route_table_association.my_rta (expand)&#45;&gt;[root] aws_route_table.my_route_table (expand) -->
<g id="edge10" class="edge">
<title>[root] aws_route_table_association.my_rta (expand)-&gt;[root] aws_route_table.my_route_table (expand)</title>
<path fill="none" stroke="#000000" d="M592.2217,-310.6626C591.1522,-302.9622 589.8804,-293.8056 588.6919,-285.2479"/>
<polygon fill="#000000" stroke="#000000" points="592.145,-284.668 587.3025,-275.2446 585.2116,-285.631 592.145,-284.668"/>
</g>
<!-- [root] aws_route_table_association.my_rta (expand)&#45;&gt;[root] aws_subnet.my_subnet (expand) -->
<g id="edge11" class="edge">
<title>[root] aws_route_table_association.my_rta (expand)-&gt;[root] aws_subnet.my_subnet (expand)</title>
<path fill="none" stroke="#000000" d="M640.4191,-310.6626C664.8419,-300.9475 695.0917,-288.9144 720.7935,-278.6905"/>
<polygon fill="#000000" stroke="#000000" points="722.4015,-281.8177 730.3996,-274.8693 719.8141,-275.3134 722.4015,-281.8177"/>
</g>
<!-- [root] aws_vpc.my_vpc (expand) -->
<g id="node9" class="node">
<title>[root] aws_vpc.my_vpc (expand)</title>
<polygon fill="none" stroke="#000000" points="983.3315,-202.8313 870.1588,-202.8313 870.1588,-166.8313 983.3315,-166.8313 983.3315,-202.8313"/>
<text text-anchor="middle" x="926.7451" y="-180.6313" font-family="Times,serif" font-size="14.00" fill="#000000">aws_vpc.my_vpc</text>
</g>
<!-- [root] aws_security_group.my_sg (expand)&#45;&gt;[root] aws_vpc.my_vpc (expand) -->
<g id="edge12" class="edge">
<title>[root] aws_security_group.my_sg (expand)-&gt;[root] aws_vpc.my_vpc (expand)</title>
<path fill="none" stroke="#000000" d="M945.4366,-238.6626C942.7334,-230.8776 939.5135,-221.6042 936.5141,-212.966"/>
<polygon fill="#000000" stroke="#000000" points="939.7252,-211.5432 933.1386,-203.2446 933.1124,-213.8394 939.7252,-211.5432"/>
</g>
<!-- [root] aws_subnet.my_subnet (expand)&#45;&gt;[root] aws_vpc.my_vpc (expand) -->
<g id="edge13" class="edge">
<title>[root] aws_subnet.my_subnet (expand)-&gt;[root] aws_vpc.my_vpc (expand)</title>
<path fill="none" stroke="#000000" d="M813.8488,-238.6626C833.8646,-229.1187 858.5718,-217.3378 879.7645,-207.2326"/>
<polygon fill="#000000" stroke="#000000" points="881.3954,-210.3325 888.9154,-202.8693 878.3826,-204.0141 881.3954,-210.3325"/>
</g>
<!-- [root] var.subnet_cidr -->
<g id="node14" class="node">
<title>[root] var.subnet_cidr</title>
<polygon fill="none" stroke="#000000" points="824.9364,-202.8313 728.5539,-202.8313 728.5539,-166.8313 830.9364,-166.8313 830.9364,-196.8313 824.9364,-202.8313"/>
<polyline fill="none" stroke="#000000" points="824.9364,-202.8313 824.9364,-196.8313 "/>
<polyline fill="none" stroke="#000000" points="830.9364,-196.8313 824.9364,-196.8313 "/>
<text text-anchor="middle" x="779.7451" y="-180.6313" font-family="Times,serif" font-size="14.00" fill="#000000">var.subnet_cidr</text>
</g>
<!-- [root] aws_subnet.my_subnet (expand)&#45;&gt;[root] var.subnet_cidr -->
<g id="edge14" class="edge">
<title>[root] aws_subnet.my_subnet (expand)-&gt;[root] var.subnet_cidr</title>
<path fill="none" stroke="#000000" d="M776.7545,-238.6626C777.1823,-230.9622 777.691,-221.8056 778.1664,-213.2479"/>
<polygon fill="#000000" stroke="#000000" points="781.662,-213.4233 778.7222,-203.2446 774.6728,-213.035 781.662,-213.4233"/>
</g>
<!-- [root] aws_vpc.my_vpc (expand)&#45;&gt;[root] provider[&quot;registry.terraform.io/hashicorp/aws&quot;] -->
<g id="edge15" class="edge">
<title>[root] aws_vpc.my_vpc (expand)-&gt;[root] provider["registry.terraform.io/hashicorp/aws"]</title>
<path fill="none" stroke="#000000" d="M869.785,-172.2918C859.8014,-170.3101 849.491,-168.4005 839.7451,-166.8313 755.9891,-153.3455 530.1342,-128.4932 390.6636,-113.6079"/>
<polygon fill="#000000" stroke="#000000" points="390.6734,-110.0892 380.3587,-112.5094 389.9313,-117.0498 390.6734,-110.0892"/>
</g>
<!-- [root] var.vpc_cidr -->
<g id="node15" class="node">
<title>[root] var.vpc_cidr</title>
<polygon fill="none" stroke="#000000" points="964.1015,-119.4156 883.3888,-119.4156 883.3888,-83.4156 970.1015,-83.4156 970.1015,-113.4156 964.1015,-119.4156"/>
<polyline fill="none" stroke="#000000" points="964.1015,-119.4156 964.1015,-113.4156 "/>
<polyline fill="none" stroke="#000000" points="970.1015,-113.4156 964.1015,-113.4156 "/>
<text text-anchor="middle" x="926.7451" y="-97.2156" font-family="Times,serif" font-size="14.00" fill="#000000">var.vpc_cidr</text>
</g>
<!-- [root] aws_vpc.my_vpc (expand)&#45;&gt;[root] var.vpc_cidr -->
<g id="edge16" class="edge">
<title>[root] aws_vpc.my_vpc (expand)-&gt;[root] var.vpc_cidr</title>
<path fill="none" stroke="#000000" d="M926.7451,-166.7313C926.7451,-155.9097 926.7451,-141.9265 926.7451,-129.6763"/>
<polygon fill="#000000" stroke="#000000" points="930.2452,-129.4802 926.7451,-119.4803 923.2452,-129.4803 930.2452,-129.4802"/>
</g>
<!-- [root] data.aws_ami.ubuntu (expand)&#45;&gt;[root] provider[&quot;registry.terraform.io/hashicorp/aws&quot;] -->
<g id="edge17" class="edge">
<title>[root] data.aws_ami.ubuntu (expand)-&gt;[root] provider["registry.terraform.io/hashicorp/aws"]</title>
<path fill="none" stroke="#000000" d="M399.2445,-166.7313C374.2439,-153.6153 340.3905,-135.855 314.2958,-122.165"/>
<polygon fill="#000000" stroke="#000000" points="315.898,-119.0532 305.4166,-117.5067 312.646,-125.2519 315.898,-119.0532"/>
</g>
<!-- [root] var.aws_region -->
<g id="node12" class="node">
<title>[root] var.aws_region</title>
<polygon fill="none" stroke="#000000" points="319.652,-36 223.8383,-36 223.8383,0 325.652,0 325.652,-30 319.652,-36"/>
<polyline fill="none" stroke="#000000" points="319.652,-36 319.652,-30 "/>
<polyline fill="none" stroke="#000000" points="325.652,-30 319.652,-30 "/>
<text text-anchor="middle" x="274.7451" y="-13.8" font-family="Times,serif" font-size="14.00" fill="#000000">var.aws_region</text>
</g>
<!-- [root] provider[&quot;registry.terraform.io/hashicorp/aws&quot;]&#45;&gt;[root] var.aws_region -->
<g id="edge24" class="edge">
<title>[root] provider["registry.terraform.io/hashicorp/aws"]-&gt;[root] var.aws_region</title>
<path fill="none" stroke="#000000" d="M274.7451,-83.3157C274.7451,-72.4941 274.7451,-58.5108 274.7451,-46.2607"/>
<polygon fill="#000000" stroke="#000000" points="278.2452,-46.0646 274.7451,-36.0646 271.2452,-46.0647 278.2452,-46.0646"/>
</g>
<!-- [root] output.security_group_id (expand) -->
<g id="node17" class="node">
<title>[root] output.security_group_id (expand)</title>
<ellipse fill="none" stroke="#000000" cx="951.7451" cy="-328.8313" rx="169.5564" ry="18"/>
<text text-anchor="middle" x="951.7451" y="-324.6313" font-family="Times,serif" font-size="14.00" fill="#000000">[root] output.security_group_id (expand)</text>
</g>
<!-- [root] output.security_group_id (expand)&#45;&gt;[root] aws_security_group.my_sg (expand) -->
<g id="edge18" class="edge">
<title>[root] output.security_group_id (expand)-&gt;[root] aws_security_group.my_sg (expand)</title>
<path fill="none" stroke="#000000" d="M951.7451,-310.6626C951.7451,-302.9622 951.7451,-293.8056 951.7451,-285.2479"/>
<polygon fill="#000000" stroke="#000000" points="955.2452,-285.2445 951.7451,-275.2446 948.2452,-285.2446 955.2452,-285.2445"/>
</g>
<!-- [root] output.subnet_id (expand) -->
<g id="node18" class="node">
<title>[root] output.subnet_id (expand)</title>
<ellipse fill="none" stroke="#000000" cx="786.7451" cy="-400.8313" rx="136.6289" ry="18"/>
<text text-anchor="middle" x="786.7451" y="-396.6313" font-family="Times,serif" font-size="14.00" fill="#000000">[root] output.subnet_id (expand)</text>
</g>
<!-- [root] output.subnet_id (expand)&#45;&gt;[root] aws_subnet.my_subnet (expand) -->
<g id="edge19" class="edge">
<title>[root] output.subnet_id (expand)-&gt;[root] aws_subnet.my_subnet (expand)</title>
<path fill="none" stroke="#000000" d="M780.7753,-382.5632C777.7044,-372.2069 774.2888,-358.9363 772.7451,-346.8313 770.1124,-326.1861 771.0291,-302.6749 772.5156,-284.8613"/>
<polygon fill="#000000" stroke="#000000" points="776.0062,-285.1244 773.461,-274.8399 769.0372,-284.4669 776.0062,-285.1244"/>
</g>
<!-- [root] output.vpc_id (expand) -->
<g id="node19" class="node">
<title>[root] output.vpc_id (expand)</title>
<ellipse fill="none" stroke="#000000" cx="1127.7451" cy="-400.8313" rx="125.5933" ry="18"/>
<text text-anchor="middle" x="1127.7451" y="-396.6313" font-family="Times,serif" font-size="14.00" fill="#000000">[root] output.vpc_id (expand)</text>
</g>
<!-- [root] output.vpc_id (expand)&#45;&gt;[root] aws_vpc.my_vpc (expand) -->
<g id="edge20" class="edge">
<title>[root] output.vpc_id (expand)-&gt;[root] aws_vpc.my_vpc (expand)</title>
<path fill="none" stroke="#000000" d="M1132.9692,-382.6336C1137.3649,-363.7468 1141.3952,-333.8098 1130.7451,-310.8313 1105.2264,-255.7723 1042.6178,-222.5613 993.4368,-204.1699"/>
<polygon fill="#000000" stroke="#000000" points="994.3889,-200.7925 983.7946,-200.6871 992.0108,-207.3762 994.3889,-200.7925"/>
</g>
<!-- [root] provider[&quot;registry.terraform.io/hashicorp/aws&quot;] (close) -->
<g id="node20" class="node">
<title>[root] provider["registry.terraform.io/hashicorp/aws"] (close)</title>
<ellipse fill="none" stroke="#000000" cx="384.7451" cy="-400.8313" rx="247.2168" ry="18"/>
<text text-anchor="middle" x="384.7451" y="-396.6313" font-family="Times,serif" font-size="14.00" fill="#000000">[root] provider["registry.terraform.io/hashicorp/aws"] (close)</text>
</g>
<!-- [root] provider[&quot;registry.terraform.io/hashicorp/aws&quot;] (close)&#45;&gt;[root] aws_db_instance.default (expand) -->
<g id="edge21" class="edge">
<title>[root] provider["registry.terraform.io/hashicorp/aws"] (close)-&gt;[root] aws_db_instance.default (expand)</title>
<path fill="none" stroke="#000000" d="M338.2732,-383.0335C312.5948,-373.1993 280.495,-360.9057 253.3604,-350.5137"/>
<polygon fill="#000000" stroke="#000000" points="254.5786,-347.2324 243.9883,-346.9244 252.075,-353.7694 254.5786,-347.2324"/>
</g>
<!-- [root] provider[&quot;registry.terraform.io/hashicorp/aws&quot;] (close)&#45;&gt;[root] aws_instance.my_instance (expand) -->
<g id="edge22" class="edge">
<title>[root] provider["registry.terraform.io/hashicorp/aws"] (close)-&gt;[root] aws_instance.my_instance (expand)</title>
<path fill="none" stroke="#000000" d="M384.7451,-382.6626C384.7451,-374.9622 384.7451,-365.8056 384.7451,-357.2479"/>
<polygon fill="#000000" stroke="#000000" points="388.2452,-357.2445 384.7451,-347.2446 381.2452,-357.2446 388.2452,-357.2445"/>
</g>
<!-- [root] provider[&quot;registry.terraform.io/hashicorp/aws&quot;] (close)&#45;&gt;[root] aws_route_table_association.my_rta (expand) -->
<g id="edge23" class="edge">
<title>[root] provider["registry.terraform.io/hashicorp/aws"] (close)-&gt;[root] aws_route_table_association.my_rta (expand)</title>
<path fill="none" stroke="#000000" d="M436.1169,-383.2181C465.1525,-373.2631 501.6669,-360.7438 532.3412,-350.2269"/>
<polygon fill="#000000" stroke="#000000" points="533.754,-353.4426 542.0783,-346.8885 531.4836,-346.821 533.754,-353.4426"/>
</g>
<!-- [root] root -->
<g id="node21" class="node">
<title>[root] root</title>
<ellipse fill="none" stroke="#000000" cx="868.7451" cy="-472.8313" rx="50.9823" ry="18"/>
<text text-anchor="middle" x="868.7451" y="-468.6313" font-family="Times,serif" font-size="14.00" fill="#000000">[root] root</text>
</g>
<!-- [root] root&#45;&gt;[root] output.security_group_id (expand) -->
<g id="edge25" class="edge">
<title>[root] root-&gt;[root] output.security_group_id (expand)</title>
<path fill="none" stroke="#000000" d="M894.5426,-457.1338C907.9403,-447.6672 923.4177,-434.4271 932.7451,-418.8313 943.966,-400.0695 948.6193,-375.6376 950.5204,-356.9647"/>
<polygon fill="#000000" stroke="#000000" points="954.0094,-357.2411 951.3342,-346.9895 947.0326,-356.6718 954.0094,-357.2411"/>
</g>
<!-- [root] root&#45;&gt;[root] output.subnet_id (expand) -->
<g id="edge26" class="edge">
<title>[root] root-&gt;[root] output.subnet_id (expand)</title>
<path fill="none" stroke="#000000" d="M849.3123,-455.7683C838.9995,-446.7132 826.1419,-435.4236 814.7693,-425.4379"/>
<polygon fill="#000000" stroke="#000000" points="817.0065,-422.7445 807.1828,-418.7765 812.3879,-428.0046 817.0065,-422.7445"/>
</g>
<!-- [root] root&#45;&gt;[root] output.vpc_id (expand) -->
<g id="edge27" class="edge">
<title>[root] root-&gt;[root] output.vpc_id (expand)</title>
<path fill="none" stroke="#000000" d="M908.9297,-461.6603C949.34,-450.4265 1012.3735,-432.9037 1060.4277,-419.545"/>
<polygon fill="#000000" stroke="#000000" points="1061.4368,-422.8973 1070.134,-416.8467 1059.5619,-416.153 1061.4368,-422.8973"/>
</g>
<!-- [root] root&#45;&gt;[root] provider[&quot;registry.terraform.io/hashicorp/aws&quot;] (close) -->
<g id="edge28" class="edge">
<title>[root] root-&gt;[root] provider["registry.terraform.io/hashicorp/aws"] (close)</title>
<path fill="none" stroke="#000000" d="M821.4559,-465.7965C748.4827,-454.941 606.1682,-433.7703 503.8087,-418.5432"/>
<polygon fill="#000000" stroke="#000000" points="504.1262,-415.052 493.72,-417.0424 503.0961,-421.9758 504.1262,-415.052"/>
</g>
</g>
</svg>